<svg width="17" height="16" viewBox="0 0 17 16" fill="none" xmlns="http://www.w3.org/2000/svg">
    <path
        d="M11.7134 10.0629H10.9907L10.7346 9.81589C11.6311 8.77301 12.1708 7.4191 12.1708 5.94625C12.1708 2.66209 9.50874 0 6.22458 0C2.94041 0 0.27832 2.66209 0.27832 5.94625C0.27832 9.23042 2.94041 11.8925 6.22458 11.8925C7.69742 11.8925 9.05133 11.3528 10.0942 10.4563L10.3412 10.7124V11.4351L14.9153 16L16.2783 14.6369L11.7134 10.0629ZM6.22458 10.0629C3.9467 10.0629 2.10794 8.22413 2.10794 5.94625C2.10794 3.66838 3.9467 1.82962 6.22458 1.82962C8.50245 1.82962 10.3412 3.66838 10.3412 5.94625C10.3412 8.22413 8.50245 10.0629 6.22458 10.0629Z"
        fill="#fff" />
</svg>